<?xml version="1.0" standalone="no"?>
<!DOCTYPE svg PUBLIC "-//W3C//DTD SVG 20010904//EN"
 "http://www.w3.org/TR/2001/REC-SVG-20010904/DTD/svg10.dtd">
<svg version="1.0" xmlns="http://www.w3.org/2000/svg"
 width="232.000000pt" height="232.000000pt" viewBox="0 0 232.000000 232.000000"
 preserveAspectRatio="xMidYMid meet">
<metadata>
Created by potrace 1.11, written by Peter Selinger 2001-2013
</metadata>
<g transform="translate(0.000000,232.000000) scale(0.100000,-0.100000)"
fill="#000000" stroke="none">
<path d="M402 2114 c-180 -48 -332 -189 -382 -352 -20 -65 -21 -88 -18 -628
l3 -561 42 -85 c68 -137 189 -236 342 -282 48 -14 141 -16 775 -16 720 1 721
1 787 23 147 50 264 152 328 287 l36 75 3 560 c3 537 2 562 -18 626 -38 128
-131 235 -260 303 -128 67 -112 66 -886 65 -572 0 -709 -3 -752 -15z m1466
-425 l43 -12 -6 -71 c-3 -39 -8 -85 -11 -102 l-4 -32 -63 20 c-73 23 -214 28
-269 9 -41 -13 -78 -53 -78 -82 0 -9 12 -31 26 -48 21 -25 51 -39 167 -76 173
-55 227 -90 264 -171 19 -42 24 -71 25 -128 0 -173 -82 -272 -262 -317 -103
-26 -417 -11 -471 21 -10 7 -10 29 -1 110 6 56 12 104 14 106 2 1 35 -9 73
-23 83 -30 240 -43 298 -24 45 15 77 54 77 93 0 53 -51 92 -171 128 -186 58
-270 116 -297 209 -15 49 -15 153 0 202 14 50 68 112 122 144 84 49 175 66
336 61 80 -3 164 -10 188 -17z m-758 -106 l-1 -108 -245 -295 -245 -295 250
-3 251 -2 0 -100 0 -100 -400 0 -400 0 0 105 0 106 240 297 c132 163 240 300
240 305 0 4 -103 7 -230 7 l-230 0 0 95 0 95 385 0 385 0 0 -107z"/>
</g>
</svg>
